<svg width="42" height="41" xmlns="http://www.w3.org/2000/svg">
 <g>
  <title>Layer 1</title>
  <path id="svg_2" d="m0,15.17c2.44,-6.41 7.38,-11.73 13.92,-14.01c6.059999,-1.54 12.65,-0.65 17.789999,3.02c-0.23,0.53 -0.689999,1.6 -0.919998,2.13c-1.330002,-0.66 -2.620001,-1.39 -3.880001,-2.18c-0.030001,0.52 -0.07,1.58 -0.09,2.1c-2.6,0.63 -4.809999,2.4 -7.6,2.28c1.26,0.92 2.460001,1.92 3.59,2.99c2.17,-1.18 4.370001,-1.01 6.25,0.61c1.35,-0.66 2.68,-1.37 4.01,-2.08c-0.459999,-1.349999 -0.950001,-2.68 -1.469999,-4.02c2.719999,1.42 5.589998,2.54 8.620001,3.11c-0.710003,0.38 -2.120003,1.14 -2.830002,1.52c3.380001,4.9 2.799999,11.349999 1.84,16.909999c-2.59,6.959999 -8.949999,12.889999 -16.58,13.450001l-5.369999,0c-8.200001,-0.34 -14.320001,-6.98 -17.280001,-14.139999l0,-11.690001z" fill="#000000"/>
  <path id="svg_3" d="m13.98,3.94c4.140001,-1.33 9.18,-1.84 12.77,1.12c-0.700001,0.21 -2.08,0.63 -2.77,0.84c-0.4,0.52 -1.209999,1.56 -1.619999,2.08c-0.650002,-0.1 -1.950001,-0.3 -2.6,-0.4c-0.309999,0.16 -0.92,0.48 -1.23,0.63c-1.950001,0.39 -3.920001,0.61 -5.89,0.82c-0.79,-0.54 -1.56,-1.09 -2.360001,-1.61l-0.87,0.74c-0.2,0.24 -0.599999,0.72 -0.79,0.97c-0.24,0.4 -0.71,1.21 -0.94,1.62l-0.51,0.17c-0.68,-0.04 -2.04,-0.13 -2.72,-0.18c2.77,-2.73 5.5,-6.02 9.53,-6.8z" fill="#05c0f3"/>
  <path id="svg_4" d="m10.28,7.42c0.8,0.52 1.570001,1.07 2.360001,1.61c1.99,1.31 3.909999,2.73 5.98,3.940001c2.339998,1.52 4.83,2.86 7.549999,3.54c-2.460001,-0.26 -4.889999,0.23 -7.280001,0.780001c-1.08,0.199999 -2.16,0.41 -3.23,0.629999c0.58,0.49 1.74,1.459999 2.33,1.950001c-0.709999,-0.110001 -1.42,-0.220001 -2.13,-0.34c-3.179999,-3.190001 -7.27,-0.01 -10.929999,0.41c-0.63,0.019999 -1.89,0.059999 -2.53,0.08c3.5,-2.73 7.89,-3.950001 12.28,-3.68c0.73,-0.91 1.469999,-1.82 2.219999,-2.72c-1.839999,-1.19 -3.73,-2.32 -5.389999,-3.76c-0.530001,-0.42 -1.58,-1.28 -2.1,-1.7l0.87,-0.74z" fill="#555253"/>
  <path id="svg_5" d="m8.62,9.13c0.190001,-0.25 0.59,-0.73 0.79,-0.97c0.52,0.42 1.57,1.28 2.1,1.7c-0.72,1.47 -2.54,0.46 -2.89,-0.73z" fill="#ffffff"/>
  <path id="svg_6" d="m7.68,10.75c0.23,-0.41 0.7,-1.22 0.94,-1.62c0.35,1.19 2.17,2.2 2.89,0.73c1.66,1.440001 3.55,2.570001 5.389999,3.76c-0.75,0.900001 -1.49,1.81 -2.219999,2.72c-4.39,-0.27 -8.78,0.950001 -12.28,3.68l-0.29,0.189999c0.05,-1.16 0.09,-2.33 0.14,-3.49l0.4,-0.099998c0.32,-0.08 0.94,-0.240002 1.26,-0.310001c2.27,-1.08 4.319999,-2.539999 6.38,-3.969999c-0.65,-0.4 -1.96,-1.2 -2.61,-1.59z" fill="#888a8d"/>
  <path id="svg_7" d="m12.64,9.03c1.969999,-0.21 3.94,-0.429999 5.89,-0.82c1.01,1.26 2.01,2.51 2.939999,3.82c-0.709999,0.23 -2.139999,0.7 -2.849998,0.940001c-2.070002,-1.21 -3.990001,-2.63 -5.98,-3.940001z" fill="#59d3f3"/>
  <path id="svg_8" d="m7.17,10.92l0.51,-0.17c0.65,0.39 1.960001,1.190001 2.61,1.59c-2.06,1.43 -4.11,2.889999 -6.38,3.969999c-0.32,0.07 -0.94,0.230001 -1.26,0.310001c-0.06,-2.990001 1.56,-5.150001 4.52,-5.700001z" fill="#b2b3b5"/>
  <path id="svg_10" d="m15.66,17.92c1.07,-0.219999 2.15,-0.43 3.23,-0.629999c2.560001,-0.150002 5.120001,0 7.68,0.089998c-1.119999,0.800001 -2.23,1.650002 -3.43,2.33c-2.09,0.52 -4.209999,0.92 -6.33,1.320002c1.18,1.049999 2.35,2.109999 3.58,3.099998c-2.33,0.360001 -4.66,0.790001 -6.959999,1.33c-4.08,1.070002 -6.01,-3.219999 -8.5,-5.519999c3.66,-0.42 7.75,-3.6 10.929999,-0.41c0.71,0.119999 1.420001,0.23 2.13,0.34c-0.59,-0.490002 -1.75,-1.460001 -2.33,-1.950001z" fill="#8ebe39"/>
  <path id="svg_11" d="m26.57,17.379999c3.25,-0.029999 6.5,-0.039999 9.75,0.09c-0.779999,1.66 -2.579998,2.120001 -4.049999,2.900002c1.110001,0.98 1.91,2.259998 3.049999,3.209999c-0.810001,0.17 -2.419998,0.5 -3.23,0.66c-1.91,1.130001 -3.549999,2.639999 -5.42,3.84c-2.49,0.210001 -4.870001,-0.83 -7.24,-1.469999l-0.91,-0.300001l0.17,-0.98c0.43,-0.299999 1.279999,-0.9 1.699999,-1.200001c0.59,-0.17 1.77,-0.519999 2.360001,-0.699999c-0.91,-0.66 -1.83,-1.309999 -2.75,-1.970001c1.049999,-0.57 2.1,-1.15 3.139999,-1.75c1.200001,-0.679998 2.310001,-1.529999 3.43,-2.33z" fill="#68a738"/>
  <path id="svg_12" d="m33.400002,20.469999c1.829998,-0.629999 2.859997,-2.26 4.109997,-3.59c1.43,4.990002 -0.609997,9.800001 -2.489998,14.320002c-3.92,-0.030001 -7.83,-0.27 -11.73,-0.530001l0.289999,-1.57c-2.280001,-0.33 -4.559999,-0.630001 -6.809999,-1.110001c0.51,0.040001 1.539999,0.120001 2.059999,0.16c-0.610001,-0.76 -1.200001,-1.52 -1.789999,-2.289999c0.369999,0.119999 1.109999,0.34 1.48,0.449999l0.91,0.300001c2.35,0.859999 4.73,2.109999 7.299999,1.869999c2.390001,-0.449999 3.98,-2.41 5.360001,-4.24c0.810001,-0.16 2.419998,-0.49 3.23,-0.66l0.68,-0.139999c-0.880001,-0.980001 -1.75,-1.960001 -2.599998,-2.970001z" fill="#00bdf2"/>
  <path id="svg_13" d="m2.11,20.209999l0.29,-0.189999c0.64,-0.02 1.9,-0.060001 2.53,-0.08c2.49,2.299999 4.42,6.59 8.5,5.519999c-0.14,0.380001 -0.41,1.140001 -0.55,1.52c1.28,0.390001 2.57,0.75 3.89,1.01c2.25,0.48 4.529999,0.780001 6.809999,1.110001l-0.289999,1.57c-6.530001,0.15 -12.890001,-1.5 -19.400001,-1.57c-1.18,-2.710001 -2.43,-5.98 -1.78,-8.890001z" fill="#70ac39"/>
  <path id="svg_14" d="m16.809999,21.030001c2.120001,-0.400002 4.24,-0.800001 6.33,-1.320002c-1.039999,0.6 -2.09,1.18 -3.139999,1.75c0.92,0.660002 1.84,1.310001 2.75,1.970001c-0.59,0.18 -1.77,0.529999 -2.360001,0.699999c-1.23,-0.99 -2.4,-2.049999 -3.58,-3.099998z" fill="#5f8680"/>
  <path id="svg_15" d="m13.43,25.459999c2.299999,-0.539999 4.629999,-0.969999 6.959999,-1.33c-0.42,0.300001 -1.269999,0.900002 -1.699999,1.200001c-0.450001,-0.039999 -1.35,-0.129999 -1.800001,-0.17l0.150002,0.700001c0.589998,0.769999 1.179998,1.529999 1.789999,2.289999c-0.52,-0.039999 -1.549999,-0.119999 -2.059999,-0.16c-1.320001,-0.26 -2.610001,-0.619999 -3.89,-1.01c0.14,-0.379999 0.41,-1.139999 0.55,-1.52z" fill="#95dbf9"/>
  <path id="svg_16" d="m26.67,28.08c1.870001,-1.200001 3.51,-2.709999 5.42,-3.84c-1.380001,1.83 -2.969999,3.790001 -5.360001,4.24c-2.57,0.24 -4.949999,-1.01 -7.299999,-1.869999c2.369999,0.639999 4.75,1.68 7.24,1.469999z" fill="#000000"/>
  <path id="svg_17" d="m16.889999,25.16c0.450001,0.040001 1.35,0.130001 1.800001,0.17l-0.17,0.98c-0.370001,-0.109999 -1.110001,-0.33 -1.48,-0.449999l-0.150002,-0.700001z" fill="#656a0c"/>
  <path id="svg_18" d="m0,26.860001c2.96,7.16 9.08,13.799999 17.280001,14.139999l-17.280001,0l0,-14.139999z" fill="#ffffff"/>
  <path id="svg_19" d="m4.01,29.98c6.349999,0.360001 12.610001,1.59 18.969999,1.960001c0.210001,0.179998 0.630001,0.539999 0.84,0.719999c1.57,1.400002 3.08,2.869999 4.6,4.330002c-0.82,0.239998 -1.65,0.449997 -2.48,0.639999c-1.57,-0.420002 -3.130001,-0.900002 -4.690001,-1.360001c-3.299999,-1.400002 -6.97,-1.510002 -10.4,-0.510002c-2.150001,1.09 -3.06,-1.529999 -4.320001,-2.679996c1.52,-0.18 3.04,-0.360001 4.56,-0.540001c-2.610001,-0.139999 -5.87,0.43 -7.08,-2.560001z" fill="#776b59"/>
  <path id="svg_20" d="m23.290001,30.67c3.9,0.26 7.809999,0.5 11.73,0.530001c-1.670002,1.459999 -3.24,3.02 -4.640001,4.739998c-2.4,-0.609997 -4.529999,-1.899998 -6.559999,-3.279999c-0.209999,-0.18 -0.629999,-0.540001 -0.84,-0.719999l-1.389999,-1.33l1.700001,0.059999z" fill="#038ec3"/>
  <path id="svg_21" d="m15.38,33.110001c0.7,-0.82 3.259999,-1 3.150001,0.450001c-0.710001,0.77 -3.26,0.989998 -3.150001,-0.450001z" fill="#39342e"/>
  <path id="svg_22" d="m21.33,33.099998c2.960001,-1.619999 0.290001,3.360001 0,0z" fill="#080909"/>
  <path id="svg_23" d="m11.690001,35.919998c3.179999,-0.089996 6.439999,-0.48 9.559999,0.350002c1.559999,0.459999 3.120001,0.939999 4.690001,1.360001c-4.360001,2.289997 -10.950001,2.349998 -14.25,-1.710003z" fill="#c0bfbd"/>
 </g>
</svg>
