<?xml version="1.0"?>
<svg width="313" height="313" xmlns="http://www.w3.org/2000/svg" xmlns:svg="http://www.w3.org/2000/svg" preserveAspectRatio="xMidYMid meet">
 <metadata>Created by potrace 1.12, written by Peter Selinger 2001-2015</metadata>
 <g>
  <title>Layer 1</title>
  <g id="svg_1" fill="#000000" transform="translate(0,313) scale(0.10000000149011612,-0.10000000149011612) ">
   <path stroke-width="0" fill="#0a62a9" id="svg_2" d="m1404,3120c-477,-55 -893,-309 -1147,-700c-258,-399 -323,-877 -180,-1325c172,-538 613,-934 1177,-1057c86,-19 132,-22 311,-22c179,0 224,3 308,22c630,140 1079,589 1219,1219c19,84 22,129 22,308c0,237 -13,325 -80,516c-183,529 -656,930 -1204,1023c-115,20 -328,28 -426,16zm467,-113c354,-83 674,-295 900,-597c44,-57 79,-108 79,-112c0,-5 -578,-8 -1285,-8c-749,0 -1285,4 -1285,9c0,5 25,44 56,87c247,344 608,571 1019,640c127,21 384,12 516,-19zm-331,-1106l0,-319l-106,45c-401,170 -872,159 -1269,-29c-38,-18 -73,-34 -77,-36c-13,-6 -9,128 7,223c20,121 48,219 97,337l40,98l654,0l654,0l0,-319zm1375,266c74,-168 120,-353 131,-523l6,-99l-78,-34c-121,-52 -238,-89 -374,-118c-107,-23 -150,-26 -300,-27c-127,0 -199,5 -263,17c-115,23 -250,68 -329,109c-34,18 -66,34 -70,36c-5,2 -8,-321 -8,-717l0,-721l-45,0l-45,0l0,740l0,740l26,-10c57,-22 54,-38 54,325l0,335l636,0l635,0l24,-53z"/>
  </g>
 </g>
</svg>